<mxfile host="Electron" modified="2023-05-05T13:40:17.556Z" agent="Mozilla/5.0 (Macintosh; Intel Mac OS X 10_15_7) AppleWebKit/537.36 (KHTML, like Gecko) draw.io/21.2.1 Chrome/112.0.5615.87 Electron/24.1.2 Safari/537.36" etag="ym1rkS8p6HsVeIpet9dc" version="21.2.1" type="device">
  <diagram name="第 1 页" id="vaVC9WbiTn3Yk-Exh0Be">
    <mxGraphModel dx="937" dy="618" grid="1" gridSize="10" guides="1" tooltips="1" connect="1" arrows="1" fold="1" page="1" pageScale="1" pageWidth="827" pageHeight="1169" math="0" shadow="0">
      <root>
        <mxCell id="0" />
        <mxCell id="1" parent="0" />
        <mxCell id="TEdhm5nVoSNbsBTVAV8r-1" value="&lt;font style=&quot;font-size: 24px;&quot;&gt;Sender&lt;/font&gt;" style="ellipse;whiteSpace=wrap;html=1;fillColor=#dae8fc;strokeColor=none;" parent="1" vertex="1">
          <mxGeometry x="30" y="120" width="120" height="80" as="geometry" />
        </mxCell>
        <mxCell id="TEdhm5nVoSNbsBTVAV8r-2" value="&lt;span style=&quot;font-size: 24px;&quot;&gt;Receiver&lt;/span&gt;" style="ellipse;whiteSpace=wrap;html=1;fillColor=#dae8fc;strokeColor=none;" parent="1" vertex="1">
          <mxGeometry x="600" y="120" width="120" height="80" as="geometry" />
        </mxCell>
        <mxCell id="TEdhm5nVoSNbsBTVAV8r-4" value="" style="image;html=1;image=img/lib/clip_art/networking/Wireless_Router_N_128x128.png" parent="1" vertex="1">
          <mxGeometry x="310" y="110" width="80" height="80" as="geometry" />
        </mxCell>
        <mxCell id="TEdhm5nVoSNbsBTVAV8r-5" value="" style="sketch=0;pointerEvents=1;shadow=0;dashed=0;html=1;strokeColor=none;labelPosition=center;verticalLabelPosition=bottom;verticalAlign=top;align=center;fillColor=#00188D;shape=mxgraph.mscae.enterprise.wireless_connection" parent="1" vertex="1">
          <mxGeometry x="430" y="100" width="150.8" height="120.01" as="geometry" />
        </mxCell>
        <mxCell id="TEdhm5nVoSNbsBTVAV8r-6" value="" style="rounded=0;whiteSpace=wrap;html=1;fillColor=#f5f5f5;fontColor=#333333;strokeColor=#666666;" parent="1" vertex="1">
          <mxGeometry x="280" y="110" width="20" height="100" as="geometry" />
        </mxCell>
        <mxCell id="TEdhm5nVoSNbsBTVAV8r-7" value="" style="rounded=0;whiteSpace=wrap;html=1;fillColor=#f5f5f5;fontColor=#333333;strokeColor=#666666;" parent="1" vertex="1">
          <mxGeometry x="394" y="110" width="20" height="100" as="geometry" />
        </mxCell>
        <mxCell id="TEdhm5nVoSNbsBTVAV8r-8" value="VM tcpdump log" style="text;html=1;align=center;verticalAlign=middle;resizable=0;points=[];autosize=1;strokeColor=none;fillColor=none;" parent="1" vertex="1">
          <mxGeometry x="235" y="228" width="110" height="30" as="geometry" />
        </mxCell>
        <mxCell id="TEdhm5nVoSNbsBTVAV8r-9" value="Hombre tcpdump log" style="text;html=1;align=center;verticalAlign=middle;resizable=0;points=[];autosize=1;strokeColor=none;fillColor=none;" parent="1" vertex="1">
          <mxGeometry x="360" y="228" width="130" height="30" as="geometry" />
        </mxCell>
        <mxCell id="xJg5_ikwz8vHtOb0-hL4-1" value="wireless loss" style="text;html=1;align=center;verticalAlign=middle;resizable=0;points=[];autosize=1;strokeColor=none;fillColor=none;" vertex="1" parent="1">
          <mxGeometry x="470" y="60" width="90" height="30" as="geometry" />
        </mxCell>
        <mxCell id="xJg5_ikwz8vHtOb0-hL4-2" value="Congestion loss due to queueing" style="text;html=1;align=center;verticalAlign=middle;resizable=0;points=[];autosize=1;strokeColor=none;fillColor=none;" vertex="1" parent="1">
          <mxGeometry x="260" y="80" width="200" height="30" as="geometry" />
        </mxCell>
        <mxCell id="xJg5_ikwz8vHtOb0-hL4-3" value="" style="endArrow=none;html=1;rounded=0;exitX=1;exitY=0.413;exitDx=0;exitDy=0;exitPerimeter=0;entryX=-0.1;entryY=0.44;entryDx=0;entryDy=0;entryPerimeter=0;" edge="1" parent="1" source="TEdhm5nVoSNbsBTVAV8r-1" target="TEdhm5nVoSNbsBTVAV8r-6">
          <mxGeometry width="50" height="50" relative="1" as="geometry">
            <mxPoint x="390" y="360" as="sourcePoint" />
            <mxPoint x="440" y="310" as="targetPoint" />
          </mxGeometry>
        </mxCell>
        <mxCell id="xJg5_ikwz8vHtOb0-hL4-9" value="" style="edgeStyle=orthogonalEdgeStyle;rounded=0;orthogonalLoop=1;jettySize=auto;html=1;" edge="1" parent="1" source="xJg5_ikwz8vHtOb0-hL4-4" target="TEdhm5nVoSNbsBTVAV8r-1">
          <mxGeometry relative="1" as="geometry" />
        </mxCell>
        <mxCell id="xJg5_ikwz8vHtOb0-hL4-4" value="Corruption loss" style="text;html=1;align=center;verticalAlign=middle;resizable=0;points=[];autosize=1;strokeColor=none;fillColor=none;" vertex="1" parent="1">
          <mxGeometry x="160" y="120" width="100" height="30" as="geometry" />
        </mxCell>
        <mxCell id="xJg5_ikwz8vHtOb0-hL4-5" value="bottleneck" style="text;html=1;align=center;verticalAlign=middle;resizable=0;points=[];autosize=1;strokeColor=none;fillColor=none;" vertex="1" parent="1">
          <mxGeometry x="520" y="210" width="80" height="30" as="geometry" />
        </mxCell>
        <mxCell id="xJg5_ikwz8vHtOb0-hL4-8" value="" style="rounded=0;whiteSpace=wrap;html=1;fillColor=#f5f5f5;fontColor=#333333;strokeColor=#666666;" vertex="1" parent="1">
          <mxGeometry x="140" y="100" width="20" height="100" as="geometry" />
        </mxCell>
        <mxCell id="xJg5_ikwz8vHtOb0-hL4-10" value="比较这里loss的时候，经过时间的长短。" style="text;html=1;align=center;verticalAlign=middle;resizable=0;points=[];autosize=1;strokeColor=none;fillColor=none;" vertex="1" parent="1">
          <mxGeometry x="240" y="258" width="240" height="30" as="geometry" />
        </mxCell>
        <mxCell id="xJg5_ikwz8vHtOb0-hL4-13" value="交换机端口镜像到另一个服务器tcpdump抓" style="text;html=1;align=center;verticalAlign=middle;resizable=0;points=[];autosize=1;strokeColor=none;fillColor=none;" vertex="1" parent="1">
          <mxGeometry x="279" y="300" width="250" height="30" as="geometry" />
        </mxCell>
        <mxCell id="xJg5_ikwz8vHtOb0-hL4-14" value="TODO：这个testbed的检测方法能适用于复杂网络？具备推广性？&lt;br&gt;最终还是通过TCP性能间接验证方法是否可靠。&lt;br&gt;&lt;div style=&quot;text-align: left;&quot;&gt;不同网络对哪些变量产生影响。&lt;/div&gt;&lt;div style=&quot;text-align: left;&quot;&gt;&lt;br&gt;&lt;/div&gt;&lt;div style=&quot;text-align: left;&quot;&gt;NS3&lt;/div&gt;&lt;div style=&quot;text-align: left;&quot;&gt;&lt;br&gt;&lt;/div&gt;" style="text;html=1;align=center;verticalAlign=middle;resizable=0;points=[];autosize=1;strokeColor=none;fillColor=none;" vertex="1" parent="1">
          <mxGeometry x="300" y="335" width="370" height="100" as="geometry" />
        </mxCell>
      </root>
    </mxGraphModel>
  </diagram>
</mxfile>
